<svg xmlns="http://www.w3.org/2000/svg" width="200" height="50" viewBox="0 0 200 50" fill="none">
  <path d="M22 10C28.0751 10 33 14.9249 33 21V29C33 35.0751 28.0751 40 22 40C15.9249 40 11 35.0751 11 29V21C11 14.9249 15.9249 10 22 10Z" fill="#2563EB"/>
  <path d="M19 19H25V24H19V19Z" fill="white"/>
  <path d="M19 26H25V31H19V26Z" fill="white"/>
  
  <!-- Middlefield -->
  <path d="M44 17H46V33H44V17Z" fill="#1E293B"/>
  <path d="M48 17H50V23L54 17H57L52 24L57 33H54L50 25.5V33H48V17Z" fill="#1E293B"/>
  <path d="M58 17H60V33H58V17Z" fill="#1E293B"/>
  <path d="M62 17H64V33H62V17Z" fill="#1E293B"/>
  <path d="M66 17H68V25C68 27.2 69.4 28.5 71.5 28.5C73.6 28.5 75 27.2 75 25V17H77V25C77 28.3 74.8 30.5 71.5 30.5C68.2 30.5 66 28.3 66 25V17Z" fill="#1E293B"/>
  <path d="M79 17H81V31H88V33H79V17Z" fill="#1E293B"/>
  <path d="M89 17H91V33H89V17Z" fill="#1E293B"/>
  <path d="M94 17H96V31H103V33H94V17Z" fill="#1E293B"/>
  <path d="M104 17H106V33H104V17Z" fill="#1E293B"/>
  <path d="M115 30.5C112.2 30.5 110 28.3 110 25C110 21.7 112.2 19.5 115 19.5C116.3 19.5 117.5 20 118.5 21L117 22.5C116.4 21.8 115.7 21.5 115 21.5C113.3 21.5 112 23 112 25C112 27 113.3 28.5 115 28.5C115.7 28.5 116.4 28.2 117 27.5L118.5 29C117.5 30 116.3 30.5 115 30.5Z" fill="#1E293B"/>
  <path d="M119 17H121V33H119V17Z" fill="#1E293B"/>
  <path d="M122 17H124V33H122V17Z" fill="#1E293B"/>
  <path d="M125 20V17H135V20H132V33H129V20H125Z" fill="#1E293B"/>
  <path d="M136 17H138V33H136V17Z" fill="#1E293B"/>
  <path d="M139 17H142V20H139V17Z" fill="#1E293B"/>
  <path d="M139 22H141V33H139V22Z" fill="#1E293B"/>
  <path d="M148 30.5C145.2 30.5 143 28.3 143 25C143 21.7 145.2 19.5 148 19.5C149.3 19.5 150.5 20 151.5 21L150 22.5C149.4 21.8 148.7 21.5 148 21.5C146.3 21.5 145 23 145 25C145 27 146.3 28.5 148 28.5C148.7 28.5 149.4 28.2 150 27.5L151.5 29C150.5 30 149.3 30.5 148 30.5Z" fill="#1E293B"/>
  <path d="M157 30.5C154.2 30.5 152 28.3 152 25C152 21.7 154.2 19.5 157 19.5C159.8 19.5 162 21.7 162 25C162 28.3 159.8 30.5 157 30.5ZM157 28.5C158.7 28.5 160 27 160 25C160 23 158.7 21.5 157 21.5C155.3 21.5 154 23 154 25C154 27 155.3 28.5 157 28.5Z" fill="#1E293B"/>
  
  <!-- Junction -->
  <path d="M169 20V17H179V20H176V33H173V20H169Z" fill="#2563EB"/>
  <path d="M180 22H182V23.5C182.6 22.5 183.7 21.9 185 21.9V24C183.5 24 182 24.9 182 26.7V33H180V22Z" fill="#2563EB"/>
  <path d="M186 22H188V33H186V22Z" fill="#2563EB"/>
  <path d="M186 19H188V21H186V19Z" fill="#2563EB"/>
  <path d="M198 30.5C196.7 30.5 195.5 30 194.5 29L196 27.5C196.6 28.2 197.3 28.5 198 28.5C199 28.5 199.5 28 199.5 27.3C199.5 26.7 199.1 26.2 197.7 26L196.5 25.8C195 25.6 194 24.7 194 23C194 21.1 195.6 19.5 198 19.5C199.3 19.5 200.5 20 201.5 21L200 22.5C199.4 21.8 198.7 21.5 198 21.5C197 21.5 196.5 22 196.5 22.7C196.5 23.3 196.9 23.8 198.3 24L199.5 24.2C201 24.4 202 25.3 202 27C202 28.9 200.4 30.5 198 30.5Z" fill="#2563EB"/>
</svg> 